<svg xmlns="http://www.w3.org/2000/svg" width="48" height="49" viewBox="0 0 48 49" fill="none">
  <path d="M24.5571 3.3534C24.1995 3.20966 23.8005 3.20966 23.4429 3.3534L5.53887 10.5497L12.75 13.4481L31.2111 6.02789L24.5571 3.3534ZM35.25 7.65125L16.7889 15.0714L24 17.9698L42.4611 10.5497L35.25 7.65125ZM45 12.7759L25.5 20.6137V44.4976L45 36.6598V12.7759ZM22.5 44.4976V20.6137L3 12.7759V36.6598L22.5 44.4976ZM22.3287 0.554491C23.4016 0.123275 24.5984 0.123275 25.6713 0.554491L47.0571 9.15021C47.6266 9.3791 48 9.93334 48 10.5497V36.6598C48 37.8925 47.2531 39.0009 46.1142 39.4587L24.5571 48.1233C24.1995 48.267 23.8005 48.267 23.4429 48.1233L1.88583 39.4587C0.746854 39.0009 0 37.8925 0 36.6598V10.5497C0 9.93334 0.373426 9.3791 0.942914 9.15021L22.3287 0.554491Z" fill="white"/>
</svg>