<svg xmlns="http://www.w3.org/2000/svg" width="48" height="48" viewBox="0 0 48 48" fill="none">
  <path d="M40.5 0C39.6716 0 39 0.671573 39 1.5C39 2.32843 39.6716 3 40.5 3H45V11.25H43.5C42.6716 11.25 42 11.9216 42 12.75C42 13.5784 42.6716 14.25 43.5 14.25H45V22.5H40.5C39.6716 22.5 39 23.1716 39 24C39 24.8284 39.6716 25.5 40.5 25.5H45V33.75H43.5C42.6716 33.75 42 34.4216 42 35.25C42 36.0784 42.6716 36.75 43.5 36.75H45V45H40.5C39.6716 45 39 45.6716 39 46.5C39 47.3284 39.6716 48 40.5 48H46.5C47.3284 48 48 47.3284 48 46.5V1.5C48 0.671573 47.3284 0 46.5 0H40.5Z" fill="white"/>
  <path d="M21 4.5L22.0907 3.47029C21.8074 3.17012 21.4128 3 21 3C20.5872 3 20.1926 3.17012 19.9093 3.47029L19.9069 3.4728L19.9019 3.47809L19.8843 3.49687L19.8192 3.56675C19.7628 3.62749 19.681 3.71626 19.5761 3.83134C19.3665 4.06148 19.0649 4.39703 18.6918 4.82424C17.9459 5.67824 16.9122 6.90076 15.7551 8.38156C13.45 11.3313 10.6148 15.3564 8.60149 19.5635C7.10397 22.6929 6 26.0475 6 29.2C6 37.8436 12.6355 45 21 45C29.3645 45 36 37.8436 36 29.2C36 26.0475 34.896 22.6929 33.3985 19.5635C31.3852 15.3564 28.55 11.3313 26.2449 8.38156C25.0878 6.90076 24.0541 5.67824 23.3082 4.82424C22.9351 4.39703 22.6335 4.06148 22.4239 3.83134C22.319 3.71626 22.2372 3.62749 22.1808 3.56675L22.1157 3.49687L22.0981 3.47809L22.0931 3.4728C22.0931 3.4728 22.0907 3.47029 21 4.5ZM21 4.5C19.9093 3.47029 19.9093 3.47029 19.9093 3.47029L21 4.5ZM20.9513 6.7977L21 6.742L21.0487 6.7977C21.7656 7.61855 22.7635 8.79861 23.8811 10.2288C25.7136 12.5738 27.8414 15.5575 29.5836 18.711H12.4164C14.1586 15.5575 16.2864 12.5738 18.1189 10.2288C19.2365 8.79861 20.2344 7.61855 20.9513 6.7977ZM9 29.2C9 26.9349 9.73058 24.3634 10.9134 21.711H31.0866C32.2694 24.3634 33 26.9349 33 29.2C33 36.3518 27.5472 42 21 42C14.4528 42 9 36.3518 9 29.2Z" fill="white"/>
</svg>