<svg xmlns="http://www.w3.org/2000/svg" width="48" height="48" viewBox="0 0 48 48" fill="none">
  <path d="M15 18.75C15 19.9926 13.9926 21 12.75 21C11.5074 21 10.5 19.9926 10.5 18.75C10.5 17.5074 11.5074 16.5 12.75 16.5C13.9926 16.5 15 17.5074 15 18.75Z" fill="white"/>
  <path d="M18.4143 14.2607C20.1265 13.7687 21.9694 13.5 23.8928 13.5C25.8908 13.5 27.8021 13.7899 29.5701 14.319C30.3637 14.5564 31.1996 14.1056 31.4371 13.3119C31.6746 12.5182 31.2237 11.6823 30.43 11.4449C28.382 10.8321 26.181 10.5 23.8928 10.5C21.6901 10.5 19.5682 10.8077 17.5858 11.3773C16.7896 11.6061 16.3296 12.437 16.5584 13.2333C16.7872 14.0295 17.6181 14.4895 18.4143 14.2607Z" fill="white"/>
  <path fill-rule="evenodd" clip-rule="evenodd" d="M23.893 4.58203C14.9602 4.58203 7.17825 9.69311 4.93072 16.957H3.28364C1.42126 16.957 0.00889926 18.6362 0.328002 20.4711L1.09009 24.8531C1.46495 27.0085 3.33574 28.582 5.52354 28.582H6.31173C7.20982 30.121 8.37547 31.516 9.74839 32.7275L7.56128 40.1585C7.42779 40.6121 7.51595 41.102 7.79915 41.4806C8.08236 41.8591 8.52747 42.082 9.00025 42.082H15.0003C15.6345 42.082 16.2002 41.6832 16.4131 41.0858L17.8587 37.0312C19.7627 37.5518 21.7911 37.832 23.893 37.832C26.0124 37.832 28.0572 37.5471 29.9749 37.0181L31.6057 41.1345C31.8323 41.7064 32.3851 42.082 33.0002 42.082H39.0002C39.4754 42.082 39.9224 41.8569 40.2053 41.4753C40.4882 41.0936 40.5736 40.6004 40.4354 40.1458L38.1502 32.6272C41.4298 29.6838 43.5001 25.6762 43.5001 21.207C43.5001 20.7708 43.4807 20.3393 43.4427 19.913C44.2242 19.5833 44.9636 19.1159 45.5551 18.5813C46.5 19.5 48 19.5 48 17.3322C48 18 46.5 18 46.6164 17.2521C46.7414 17.008 46.8351 16.7521 46.8853 16.4876C47.0155 15.801 46.8381 15.1096 46.2803 14.5518C45.63 13.9016 44.7863 13.9183 44.1604 14.2597C43.5709 14.5812 43.1081 15.2133 43.035 15.9451C42.9622 16.6731 43.2821 17.3861 43.9954 17.9061C43.7523 18.0748 43.4907 18.2298 43.2193 18.3654C41.6171 10.3738 33.3671 4.58203 23.893 4.58203ZM7.54951 18.7792C8.91235 12.5817 15.5494 7.58203 23.893 7.58203C33.329 7.58203 40.5001 13.9236 40.5001 21.207C40.5001 24.9705 38.6284 28.4356 35.4905 30.9509C35.012 31.3345 34.8152 31.9707 34.9935 32.5575L36.9766 39.082H34.0194L32.2518 34.6204C31.9557 33.873 31.123 33.4919 30.3638 33.7563C28.3796 34.4475 26.1939 34.832 23.893 34.832C21.5922 34.832 19.4065 34.4475 17.4222 33.7563C16.6439 33.4852 15.7926 33.8928 15.5159 34.6691L13.9426 39.082H11.0054L12.9042 32.6306C13.0772 32.0427 12.8752 31.4087 12.394 31.0292C10.7343 29.7204 9.4199 28.1447 8.54156 26.4058C8.28639 25.9006 7.76862 25.582 7.20266 25.582H5.52354C4.79428 25.582 4.17068 25.0575 4.04573 24.339L3.28364 19.957H6.08452C6.78881 19.957 7.39825 19.467 7.54951 18.7792ZM45.4116 16.2081C45.3778 16.386 45.2833 16.6013 45.1165 16.8396C45.069 16.8148 45.025 16.7898 44.9842 16.7646C44.5484 16.4952 44.5131 16.2389 44.5275 16.0943C44.5481 15.8886 44.6947 15.6769 44.8787 15.5766C45.0262 15.4961 45.1199 15.5128 45.2197 15.6125C45.4119 15.8048 45.4532 15.9884 45.4116 16.2081Z" fill="white"/>
</svg>