<svg xmlns="http://www.w3.org/2000/svg" width="48" height="48" viewBox="0 0 48 48" fill="none">
  <path d="M31.4841 20.7577L35.3188 18.9042C36.2268 18.4654 36.4207 17.2567 35.6957 16.5558C34.9398 15.8252 33.6514 16.1404 32.9015 16.8771C32.2112 17.5554 31.3608 17.9982 30.4541 18.4704L30.1458 18.6314C29.1331 19.1633 29.3547 20.5082 30.4497 20.839C30.7925 20.9425 31.1617 20.9135 31.4841 20.7577Z" fill="white"/>
  <path d="M23.2241 29.4231V29.3404C23.2241 28.833 23.5336 28.377 24.0051 28.1897C25.0592 27.771 26.0747 28.8722 25.5721 29.8889L24.9147 31.219C24.8228 31.4049 24.6996 31.5737 24.5505 31.7179L23.9737 32.2754C23.5557 32.6795 22.8926 32.6795 22.4746 32.2754C22.036 31.8515 22.036 31.1485 22.4746 30.7246L22.8094 30.4009C23.0744 30.1447 23.2241 29.7918 23.2241 29.4231Z" fill="white"/>
  <path d="M17.0172 37.5L18.4609 38.1978C19.2289 38.5689 20.1207 38.0095 20.1207 37.1565C20.1207 36.5178 19.6029 36 18.9642 36H17.7138C17.2615 36 16.8212 35.8543 16.4583 35.5844L15.6274 34.9665C15.267 34.6986 14.7647 34.7353 14.4472 35.0528C13.9939 35.5061 14.1425 36.274 14.7322 36.5255L17.0172 37.5Z" fill="white"/>
  <path d="M24 0C10.7452 0 0 10.7452 0 24C0 37.2548 10.7452 48 24 48C37.2548 48 48 37.2548 48 24C48 10.7452 37.2548 0 24 0ZM4.83685 32.6018L7.10249 28.7369C8.07507 27.0778 10.3356 26.7494 11.7401 28.0633L14.9621 31.0774C16.1134 32.1545 17.9071 32.1398 19.0406 31.044L19.1548 30.9337C19.7619 30.3469 20.0525 29.5056 19.9371 28.6692C19.7102 27.0242 21.0444 25.5678 22.6933 25.372C24.8789 25.1125 27.4556 24.3997 27.8793 22.5C28.1375 21.3421 27.5359 20.0123 26.7956 18.8993C26.1735 17.9642 26.7951 16.5 27.9182 16.5C28.2867 16.5 28.636 16.3357 28.8709 16.0518L30.0504 14.6266C30.6389 13.9155 31.524 13.5254 32.4408 13.4193C34.1041 13.2268 36.6625 12.5892 37.1897 10.5C37.486 9.32558 36.6161 8.59718 35.7386 7.86243C34.9761 7.22398 34.2079 6.58074 34.1942 5.63592C40.6393 9.22139 45 16.1015 45 24C45 25.62 44.8166 27.1972 44.4693 28.7118C44.3863 28.6448 44.299 28.5816 44.2074 28.5226L43.2598 27.9119C42.3809 27.3455 41.2706 27.2776 40.3292 27.7326L39.8233 27.9771C39.1288 28.3127 38.3318 28.368 37.5977 28.1315L34.5349 27.1446C34.2376 27.0488 33.9272 27 33.6148 27H33.1216C31.8417 27 30.7027 27.812 30.2855 29.022L29.7694 30.5186C29.5502 31.1544 29.1237 31.698 28.5584 32.0623L26.1508 33.614C25.2937 34.1663 24.7759 35.1161 24.7759 36.1357V37.5C24.7759 39.1569 26.119 40.5 27.7759 40.5H28.5481C29.1245 40.5 29.6887 40.666 30.1732 40.9783L32.4611 42.4527C32.7272 42.6242 33.0137 42.7496 33.3097 42.8289C30.504 44.2188 27.3432 45 24 45C15.467 45 8.12267 39.9107 4.83685 32.6018Z" fill="white"/>
</svg>